<svg width="449" height="148" viewBox="0 0 449 148" fill="none" xmlns="http://www.w3.org/2000/svg">
<path d="M0.74 147.644V144.547C5.63 144.438 9.705 143.243 12.965 140.961C16.3337 138.679 18.833 134.876 20.463 129.551C22.2017 124.335 23.071 117.326 23.071 108.524V18.874C23.071 14.8533 22.745 11.9193 22.093 10.072C21.441 8.116 20.137 6.812 18.181 6.16C16.3337 5.39933 13.5627 4.96466 9.868 4.856V1.596C12.15 1.70466 15.1383 1.81333 18.833 1.922C22.5277 2.03066 26.3853 2.08499 30.406 2.08499C34.4267 2.08499 38.2843 2.03066 41.979 1.922C45.7823 1.81333 48.9337 1.70466 51.433 1.596V4.856C47.7383 4.96466 44.913 5.39933 42.957 6.16C41.1097 6.812 39.86 8.116 39.208 10.072C38.556 11.9193 38.23 14.8533 38.23 18.874V78.532C38.23 82.9873 38.1757 87.823 38.067 93.039C37.9583 98.255 37.6867 103.308 37.252 108.198C36.926 113.088 36.3283 117.38 35.459 121.075C33.6117 128.682 29.6997 134.984 23.723 139.983C17.855 145.09 10.194 147.644 0.74 147.644ZM143.719 1.596C143.284 5.39933 142.958 9.09399 142.741 12.68C142.632 16.266 142.578 18.9827 142.578 20.83C142.578 22.786 142.632 24.6877 142.741 26.535C142.85 28.2737 142.958 29.7407 143.067 30.936H139.318C138.666 24.5247 137.742 19.4717 136.547 15.777C135.352 11.9737 133.287 9.31133 130.353 7.79C127.528 6.15999 123.235 5.34499 117.476 5.34499H103.947C100.252 5.34499 97.427 5.67099 95.471 6.323C93.6237 6.86633 92.374 8.116 91.722 10.072C91.07 11.9193 90.744 14.8533 90.744 18.874V99.722C90.744 103.634 91.07 106.568 91.722 108.524C92.374 110.48 93.6237 111.784 95.471 112.436C97.427 112.979 100.252 113.251 103.947 113.251H115.846C122.692 113.251 127.854 112.327 131.331 110.48C134.917 108.633 137.471 105.644 138.992 101.515C140.622 97.277 141.817 91.572 142.578 84.4H146.327C146.001 87.334 145.838 91.246 145.838 96.136C145.838 98.2007 145.892 101.189 146.001 105.101C146.218 108.904 146.544 112.871 146.979 117C141.437 116.783 135.189 116.674 128.234 116.674C121.279 116.565 115.085 116.511 109.652 116.511C107.261 116.511 104.164 116.511 100.361 116.511C96.6663 116.511 92.6457 116.565 88.299 116.674C83.9523 116.674 79.5513 116.728 75.096 116.837C70.6407 116.837 66.4027 116.891 62.382 117V113.74C66.0767 113.523 68.8477 113.088 70.695 112.436C72.651 111.784 73.955 110.48 74.607 108.524C75.259 106.568 75.585 103.634 75.585 99.722V18.874C75.585 14.8533 75.259 11.9193 74.607 10.072C73.955 8.116 72.651 6.812 70.695 6.16C68.8477 5.39933 66.0767 4.96466 62.382 4.856V1.596C66.4027 1.70466 70.6407 1.81333 75.096 1.922C79.5513 1.922 83.9523 1.97633 88.299 2.08499C92.6457 2.08499 96.6663 2.08499 100.361 2.08499C104.164 2.08499 107.261 2.08499 109.652 2.08499C114.651 2.08499 120.301 2.08499 126.604 2.08499C133.015 1.97633 138.72 1.81333 143.719 1.596ZM115.683 57.342C115.683 57.342 115.683 57.8853 115.683 58.972C115.683 60.0587 115.683 60.602 115.683 60.602H85.854C85.854 60.602 85.854 60.0587 85.854 58.972C85.854 57.8853 85.854 57.342 85.854 57.342H115.683ZM120.41 35.826C119.975 42.02 119.758 46.747 119.758 50.007C119.867 53.267 119.921 56.2553 119.921 58.972C119.921 61.6887 119.975 64.677 120.084 67.937C120.193 71.197 120.464 75.924 120.899 82.118H117.15C116.715 78.6407 116.172 75.272 115.52 72.012C114.977 68.6433 113.673 65.9267 111.608 63.862C109.652 61.6887 106.283 60.602 101.502 60.602V57.342C105.088 57.342 107.805 56.6357 109.652 55.223C111.608 53.7017 113.021 51.8 113.89 49.518C114.759 47.236 115.357 44.8997 115.683 42.509C116.009 40.0097 116.335 37.782 116.661 35.826H120.41ZM258.369 1.596V4.856C254.674 4.96466 251.849 5.50799 249.893 6.48599C248.046 7.46399 246.796 9.03966 246.144 11.213C245.492 13.3863 245.166 16.4833 245.166 20.504V117.815C244.514 117.815 243.862 117.815 243.21 117.815C242.667 117.815 242.069 117.815 241.417 117.815L172.957 12.028V98.092C172.957 102.004 173.283 105.101 173.935 107.383C174.696 109.556 176.108 111.132 178.173 112.11C180.346 112.979 183.552 113.523 187.79 113.74V117C185.834 116.783 183.28 116.674 180.129 116.674C176.978 116.565 173.989 116.511 171.164 116.511C168.447 116.511 165.676 116.565 162.851 116.674C160.134 116.674 157.852 116.783 156.005 117V113.74C159.7 113.523 162.471 112.979 164.318 112.11C166.274 111.132 167.578 109.556 168.23 107.383C168.882 105.101 169.208 102.004 169.208 98.092V18.874C169.208 14.8533 168.882 11.9193 168.23 10.072C167.578 8.116 166.274 6.812 164.318 6.16C162.471 5.39933 159.7 4.96466 156.005 4.856V1.596C157.852 1.70466 160.134 1.81333 162.851 1.922C165.676 2.03066 168.447 2.08499 171.164 2.08499C173.555 2.08499 175.837 2.03066 178.01 1.922C180.183 1.81333 182.139 1.70466 183.878 1.596L241.417 90.268V20.504C241.417 16.4833 241.037 13.3863 240.276 11.213C239.624 9.03966 238.211 7.46399 236.038 6.48599C233.973 5.50799 230.822 4.96466 226.584 4.856V1.596C228.54 1.70466 231.094 1.81333 234.245 1.922C237.505 2.03066 240.493 2.08499 243.21 2.08499C246.035 2.08499 248.806 2.03066 251.523 1.922C254.348 1.81333 256.63 1.70466 258.369 1.596ZM357.482 1.596C357.047 5.72533 356.721 9.746 356.504 13.658C356.395 17.4613 356.341 20.3953 356.341 22.46C356.341 25.068 356.395 27.513 356.504 29.795C356.613 32.077 356.721 34.0873 356.83 35.826H353.081C352.32 28.2193 351.288 22.2427 349.984 17.896C348.68 13.4407 346.398 10.235 343.138 8.27899C339.878 6.32299 334.825 5.34499 327.979 5.34499H319.177V98.092C319.177 102.439 319.557 105.699 320.318 107.872C321.187 110.045 322.817 111.512 325.208 112.273C327.599 113.034 331.076 113.523 335.64 113.74V117C332.815 116.783 329.229 116.674 324.882 116.674C320.535 116.565 316.134 116.511 311.679 116.511C306.789 116.511 302.171 116.565 297.824 116.674C293.586 116.674 290.163 116.783 287.555 117V113.74C292.119 113.523 295.596 113.034 297.987 112.273C300.378 111.512 301.953 110.045 302.714 107.872C303.583 105.699 304.018 102.439 304.018 98.092V5.34499H295.216C288.479 5.34499 283.426 6.32299 280.057 8.27899C276.797 10.235 274.515 13.4407 273.211 17.896C271.907 22.2427 270.875 28.2193 270.114 35.826H266.365C266.582 34.0873 266.691 32.077 266.691 29.795C266.8 27.513 266.854 25.068 266.854 22.46C266.854 20.3953 266.745 17.4613 266.528 13.658C266.419 9.746 266.148 5.72533 265.713 1.596C270.277 1.70466 275.221 1.81333 280.546 1.922C285.979 2.03066 291.413 2.08499 296.846 2.08499C302.279 2.08499 307.224 2.08499 311.679 2.08499C316.134 2.08499 321.024 2.08499 326.349 2.08499C331.782 2.08499 337.216 2.03066 342.649 1.922C348.082 1.81333 353.027 1.70466 357.482 1.596ZM397.758 0.78099L437.53 103.308C439.16 107.437 441.008 110.208 443.072 111.621C445.137 112.925 447.039 113.631 448.777 113.74V117C446.604 116.783 443.942 116.674 440.79 116.674C437.639 116.565 434.488 116.511 431.336 116.511C427.098 116.511 423.132 116.565 419.437 116.674C415.743 116.674 412.754 116.783 410.472 117V113.74C416.014 113.523 419.546 112.599 421.067 110.969C422.589 109.23 422.263 105.59 420.089 100.048L389.771 19.037L392.379 16.918L364.017 90.594C362.279 94.9407 361.246 98.6353 360.92 101.678C360.594 104.612 360.866 106.948 361.735 108.687C362.713 110.426 364.289 111.675 366.462 112.436C368.744 113.197 371.57 113.631 374.938 113.74V117C371.896 116.783 368.69 116.674 365.321 116.674C362.061 116.565 359.019 116.511 356.193 116.511C353.477 116.511 351.14 116.565 349.184 116.674C347.337 116.674 345.598 116.783 343.968 117V113.74C346.142 113.197 348.369 111.947 350.651 109.991C352.933 107.926 354.998 104.449 356.845 99.559L395.15 0.78099C395.585 0.78099 396.02 0.78099 396.454 0.78099C396.889 0.78099 397.324 0.78099 397.758 0.78099ZM417.644 70.056V73.316H369.07L370.7 70.056H417.644Z" fill="#025954"/>
</svg>
