<svg width="375" height="115" viewBox="0 0 375 115" fill="none" xmlns="http://www.w3.org/2000/svg">
<path d="M0.432 115V0.084993H30.424V90.061H81.606V115H0.432ZM81.1106 115V0.084993H162.285V23.231H109.799V45.073H158.536V68.219H109.799V91.854H162.285V115H81.1106ZM203.077 115L150.754 0.084993H182.702L215.628 76.532L248.554 0.084993H279.361L226.875 115H203.077ZM270.426 115V0.084993H325.683C338.723 0.084993 348.775 3.29066 355.838 9.702C363.01 16.0047 366.596 24.8067 366.596 36.108C366.596 44.6927 364.423 51.919 360.076 57.787C355.838 63.5463 349.644 67.567 341.494 69.849C347.58 71.479 352.47 75.6627 356.164 82.4L374.094 115H341.168L321.282 78.488C319.978 76.206 318.294 74.576 316.229 73.598C314.273 72.62 311.991 72.131 309.383 72.131H300.418V115H270.426ZM300.418 50.941H320.304C332.149 50.941 338.071 46.2683 338.071 36.923C338.071 27.6863 332.149 23.068 320.304 23.068H300.418V50.941Z" fill="#025954"/>
</svg>
