<svg width="208" height="33" viewBox="0 0 208 33" fill="none" xmlns="http://www.w3.org/2000/svg">
<path fill-rule="evenodd" clip-rule="evenodd" d="M15.8509 0C14.512 0.669414 11.6484 3.38426 11.6484 6.80571C11.8716 11.2313 14.7724 12.3098 15.8509 12.3842C16.9294 12.3098 19.8302 11.2313 20.0533 6.80571C20.0533 3.38426 17.1897 0.669414 15.8509 0Z" fill="white"/>
<path fill-rule="evenodd" clip-rule="evenodd" d="M31.7004 15.6107C31.031 14.2719 28.3162 11.4083 24.8947 11.4083C20.4692 11.6314 19.3907 14.5322 19.3163 15.6107C19.3907 16.6892 20.4692 19.59 24.8947 19.8131C28.3162 19.8131 31.031 16.9495 31.7004 15.6107Z" fill="white"/>
<path fill-rule="evenodd" clip-rule="evenodd" d="M15.8491 31.7375C17.1879 31.0681 20.0515 28.3532 20.0515 24.9318C19.8284 20.5062 16.9276 19.4277 15.8491 19.3533C14.7706 19.4277 11.8698 20.5062 11.6466 24.9318C11.6466 28.3532 14.5103 31.0681 15.8491 31.7375Z" fill="white"/>
<path fill-rule="evenodd" clip-rule="evenodd" d="M5.51083e-07 15.8318C0.669414 17.1706 3.38426 20.0342 6.80571 20.0342C11.2313 19.8111 12.3098 16.9103 12.3842 15.8318C12.3098 14.7533 11.2313 11.8525 6.80571 11.6294C3.38426 11.6294 0.669414 14.493 5.51083e-07 15.8318Z" fill="white"/>
<path d="M40.7315 9.9418C40.7315 10.4951 40.8303 10.9595 41.0279 11.335C41.2255 11.6907 41.5219 12.0069 41.9172 12.2835C42.3322 12.5602 42.846 12.8171 43.4586 13.0542C44.0909 13.2716 44.832 13.5087 45.6817 13.7656C46.4129 14.0028 47.1342 14.2696 47.8456 14.566C48.557 14.8624 49.1894 15.2477 49.7427 15.722C50.3158 16.1765 50.7703 16.7397 51.1062 17.4116C51.4422 18.0637 51.6101 18.8641 51.6101 19.8126C51.6101 20.8205 51.4125 21.6801 51.0173 22.3915C50.6221 23.0831 50.0984 23.6463 49.4463 24.0811C48.7941 24.5158 48.0333 24.832 47.1638 25.0296C46.3141 25.2273 45.4149 25.3261 44.4664 25.3261C43.2412 25.3261 42.1247 25.1877 41.1168 24.9111C40.109 24.6344 39.2 24.2886 38.3898 23.8736L38.2712 23.4883L38.7751 20.3165H39.5162L39.6644 20.4944C39.7632 21.6998 40.2473 22.5891 41.1168 23.1622C41.9863 23.7155 43.172 23.9922 44.6739 23.9922C46.2153 23.9922 47.3713 23.6463 48.142 22.9547C48.9325 22.2433 49.3277 21.3244 49.3277 20.198C49.3277 19.5063 49.1795 18.9332 48.8831 18.4787C48.5866 18.0045 48.1914 17.6092 47.6974 17.293C47.2231 16.9571 46.6698 16.6804 46.0374 16.4631C45.4248 16.2457 44.8023 16.0283 44.17 15.8109C43.3795 15.554 42.6385 15.2774 41.9468 14.981C41.2749 14.6648 40.6821 14.2992 40.1683 13.8842C39.6742 13.4692 39.279 12.9752 38.9826 12.4021C38.7059 11.829 38.5676 11.1472 38.5676 10.3568C38.5676 9.428 38.7257 8.64743 39.0419 8.01506C39.3778 7.36294 39.8323 6.83926 40.4054 6.44403C40.9785 6.02904 41.6405 5.73262 42.3914 5.55477C43.1621 5.37691 43.9921 5.28799 44.8814 5.28799C45.9485 5.28799 46.9563 5.38679 47.9049 5.58441C48.8534 5.78202 49.6241 6.01916 50.217 6.29582L50.3355 6.62188L49.9205 9.26003H49.0906L48.9424 9.11182C48.9028 8.59802 48.7349 8.18303 48.4384 7.86685C48.142 7.55067 47.7863 7.30365 47.3713 7.1258C46.9761 6.94794 46.5413 6.82938 46.0671 6.77009C45.6126 6.71081 45.2074 6.68117 44.8517 6.68117C43.5672 6.68117 42.5594 6.96771 41.8282 7.54079C41.0971 8.09411 40.7315 8.89444 40.7315 9.9418ZM62.5712 24.7925C62.6305 24.5751 62.6701 24.2491 62.6898 23.8143C62.7293 23.3796 62.7787 22.9745 62.838 22.599L62.8084 22.5101C62.5515 22.8658 62.2452 23.2116 61.8895 23.5475C61.5338 23.8835 61.1385 24.1898 60.7038 24.4664C60.2888 24.7233 59.8343 24.9308 59.3403 25.0889C58.866 25.247 58.3621 25.3261 57.8285 25.3261C57.2159 25.3261 56.6725 25.2174 56.1982 25C55.7239 24.7826 55.3287 24.4961 55.0125 24.1404C54.6963 23.7847 54.4592 23.3697 54.3011 22.8954C54.143 22.4211 54.064 21.9271 54.064 21.4133C54.064 20.6821 54.2319 20.0498 54.5679 19.5162C54.9038 18.9629 55.3484 18.5084 55.9018 18.1527C56.4156 17.8365 57.0183 17.5796 57.7099 17.382C58.4213 17.1844 59.1031 17.046 59.7552 16.967C60.4271 16.8682 61.0299 16.8089 61.5634 16.7891C62.097 16.7496 62.4527 16.7298 62.6305 16.7298H63.0455C63.0258 15.9987 62.9862 15.4256 62.9269 15.0106C62.8677 14.5759 62.7886 14.2201 62.6898 13.9435C62.4724 13.3506 62.097 12.9258 61.5634 12.6689C61.0299 12.3922 60.3876 12.2539 59.6367 12.2539C59.3205 12.2539 58.9747 12.2835 58.5992 12.3428C58.2435 12.4021 57.8977 12.5108 57.5617 12.6689C57.2455 12.827 56.9689 13.0542 56.7317 13.3506C56.4946 13.6273 56.3563 13.9929 56.3168 14.4474L56.1982 14.5363H55.5461L55.2793 12.3428L55.3682 12.165C55.467 12.0464 55.6745 11.9179 55.9907 11.7796C56.3069 11.6413 56.6725 11.5128 57.0875 11.3943C57.5222 11.2559 57.9965 11.1472 58.5103 11.0682C59.0438 10.9694 59.5675 10.92 60.0813 10.92C60.7927 10.92 61.4547 11.0188 62.0673 11.2164C62.6799 11.3943 63.2036 11.6709 63.6384 12.0464C64.0929 12.4219 64.4486 12.8961 64.7055 13.4692C64.9624 14.0225 65.0908 14.6747 65.0908 15.4256C65.0908 16.2556 65.0809 16.9966 65.0612 17.6488C65.0612 18.2811 65.0513 18.874 65.0315 19.4273C65.0118 19.9608 64.992 20.4944 64.9723 21.028C64.9723 21.5418 64.9723 22.0951 64.9723 22.6879C65.0118 23.1424 65.0612 23.4784 65.1205 23.6957C65.1798 23.8934 65.2786 24.0416 65.4169 24.1404C65.575 24.2985 65.8022 24.3973 66.0987 24.4368C66.4148 24.4566 66.731 24.4664 67.0472 24.4664L67.1658 24.585L67.1954 25L67.1658 25.1186C66.8101 25.079 66.4247 25.0494 66.0097 25.0296C65.5947 25.0099 65.1896 25 64.7944 25C64.0435 25 63.3617 25.0296 62.7491 25.0889L62.5712 24.7925ZM62.5712 21.5912C62.6305 21.4923 62.6898 21.3738 62.7491 21.2355C62.8281 21.0971 62.8775 20.9291 62.8973 20.7315L63.0455 17.7673H62.7787C61.9883 17.7673 61.1978 17.8167 60.4074 17.9155C59.6169 17.9946 58.9055 18.1625 58.2731 18.4194C57.6605 18.6763 57.1566 19.0321 56.7614 19.4866C56.3662 19.9411 56.1685 20.524 56.1685 21.2355C56.1685 21.9864 56.3859 22.5891 56.8207 23.0436C57.2554 23.4784 57.8186 23.6957 58.5103 23.6957C58.9253 23.6957 59.3403 23.6266 59.7552 23.4883C60.1702 23.3499 60.5556 23.1721 60.9113 22.9547C61.2868 22.7373 61.6128 22.5101 61.8895 22.2729C62.1859 22.0358 62.4132 21.8085 62.5712 21.5912ZM72.1484 20.9687C71.0813 20.5734 70.3106 19.951 69.8363 19.1012C69.3621 18.2515 69.1249 17.3128 69.1249 16.2852C69.1249 15.554 69.2534 14.8624 69.5103 14.2103C69.7672 13.5581 70.1328 12.9949 70.607 12.5207C71.1011 12.0266 71.684 11.6413 72.3559 11.3646C73.0476 11.088 73.8281 10.9496 74.6977 10.9496C75.2114 10.9496 75.7154 10.999 76.2094 11.0978C76.7232 11.1967 77.1678 11.335 77.5433 11.5128C78.3733 11.4931 79.144 11.4437 79.8554 11.3646C80.5866 11.2856 81.2683 11.1571 81.9007 10.9793L82.0489 11.0978L81.8414 12.7282L81.6932 12.8764L78.9958 12.7578L78.9661 12.8467C79.4799 13.2617 79.8554 13.8052 80.0925 14.477C80.3297 15.1489 80.4482 15.8011 80.4482 16.4334C80.4482 17.0856 80.3198 17.708 80.0629 18.3009C79.8257 18.8937 79.47 19.4174 78.9958 19.8719C78.5215 20.3067 77.9286 20.6624 77.2172 20.939C76.5058 21.1959 75.6857 21.3244 74.7569 21.3244C74.5988 21.3244 74.4012 21.3244 74.1641 21.3244C73.927 21.3046 73.7293 21.2947 73.5713 21.2947C73.2353 21.4331 72.9784 21.6208 72.8006 21.8579C72.6425 22.0951 72.5634 22.2927 72.5634 22.4508C72.5634 22.6484 72.6919 22.8262 72.9488 22.9843C73.2254 23.1227 73.6602 23.2215 74.253 23.2808L77.1283 23.5772C77.7804 23.6562 78.3832 23.7946 78.9365 23.9922C79.5096 24.1898 80.0036 24.4566 80.4186 24.7925C80.8533 25.1087 81.1893 25.494 81.4264 25.9485C81.6636 26.4228 81.7821 26.9663 81.7821 27.5789C81.7821 28.1519 81.6537 28.725 81.3968 29.2981C81.1399 29.891 80.7545 30.4146 80.2407 30.8691C79.7269 31.3039 79.0155 31.6596 78.1065 31.9363C77.1975 32.2129 76.1501 32.3512 74.9644 32.3512C73.8973 32.3512 72.9685 32.2327 72.1781 31.9955C71.4074 31.7782 70.7552 31.4719 70.2217 31.0766C69.7079 30.7012 69.3225 30.2664 69.0656 29.7724C68.8087 29.2981 68.6803 28.8041 68.6803 28.2903C68.6803 27.4603 68.9471 26.7192 69.4806 26.0671C70.034 25.4348 70.7355 24.9901 71.5852 24.7332L71.6149 24.6443C71.1801 24.4664 70.8343 24.2491 70.5774 23.9922C70.3205 23.7155 70.192 23.3796 70.192 22.9843C70.192 22.4705 70.3995 22.0555 70.8145 21.7394C71.2295 21.4232 71.6742 21.2058 72.1484 21.0872V20.9687ZM74.8162 20.0794C75.3695 20.0794 75.8537 19.9806 76.2687 19.783C76.7034 19.5854 77.069 19.3186 77.3654 18.9826C77.6619 18.6467 77.8891 18.2614 78.0472 17.8266C78.2053 17.3721 78.2843 16.9077 78.2843 16.4334C78.2843 15.9394 78.2053 15.4454 78.0472 14.9513C77.8891 14.4573 77.652 14.0127 77.3358 13.6174C77.0394 13.2222 76.6639 12.8961 76.2094 12.6392C75.7549 12.3823 75.2312 12.2539 74.6384 12.2539C74.0653 12.2539 73.5614 12.3725 73.1266 12.6096C72.7116 12.8467 72.3559 13.153 72.0595 13.5285C71.7828 13.904 71.5753 14.3288 71.437 14.8031C71.2987 15.2576 71.2295 15.7121 71.2295 16.1666C71.2295 16.6409 71.2987 17.1152 71.437 17.5895C71.5951 18.044 71.8224 18.459 72.1188 18.8344C72.435 19.2099 72.8104 19.5162 73.2452 19.7533C73.6997 19.9707 74.2234 20.0794 74.8162 20.0794ZM73.8677 25.1482C73.3144 25.168 72.8302 25.2668 72.4152 25.4446C72.0002 25.6225 71.6445 25.8399 71.3481 26.0968C71.0714 26.3734 70.8639 26.6698 70.7256 26.986C70.5873 27.322 70.5181 27.648 70.5181 27.9642C70.5181 28.7151 70.9331 29.3278 71.7631 29.802C72.5931 30.2763 73.7195 30.5134 75.1423 30.5134C75.7944 30.5134 76.3971 30.4542 76.9505 30.3356C77.5038 30.2368 77.978 30.0688 78.3733 29.8317C78.7883 29.6143 79.1143 29.3376 79.3515 29.0017C79.5886 28.6855 79.7072 28.31 79.7072 27.8753C79.7072 27.401 79.5886 27.0157 79.3515 26.7192C79.1341 26.4228 78.8377 26.1758 78.4622 25.9782C78.1065 25.8003 77.6915 25.662 77.2172 25.5632C76.7627 25.4842 76.3082 25.415 75.8537 25.3557L73.8677 25.1482ZM96.8954 17.0263L96.4212 17.2338C95.354 17.2338 94.2573 17.2436 93.1309 17.2634C92.0045 17.2832 90.8978 17.293 89.811 17.293H86.3132C86.2934 17.4314 86.2836 17.5697 86.2836 17.708C86.2836 17.8266 86.2836 17.9452 86.2836 18.0637C86.2836 18.8147 86.3922 19.536 86.6096 20.2276C86.827 20.8995 87.1629 21.4923 87.6174 22.0061C88.0917 22.5199 88.6944 22.9349 89.4256 23.2511C90.1568 23.5475 91.0461 23.6957 92.0934 23.6957C92.706 23.6957 93.3581 23.6365 94.0498 23.5179C94.7612 23.3796 95.4133 23.1424 96.0062 22.8065L96.3026 22.9843V23.5179L96.0062 23.844C95.5319 24.2194 94.86 24.5652 93.9905 24.8814C93.121 25.1779 92.1527 25.3261 91.0856 25.3261C90.0382 25.3261 89.0798 25.1581 88.2103 24.8221C87.3606 24.4664 86.6195 23.9724 85.9871 23.34C85.3745 22.7077 84.8904 21.9567 84.5347 21.0872C84.1987 20.2177 84.0308 19.2494 84.0308 18.1823C84.0308 17.0954 84.2086 16.1074 84.5643 15.2181C84.92 14.3288 85.4042 13.568 86.0168 12.9357C86.6491 12.3033 87.3803 11.8093 88.2103 11.4535C89.06 11.0978 89.9691 10.92 90.9374 10.92C91.4512 10.92 92.0242 10.9892 92.6566 11.1275C93.3087 11.2658 93.9312 11.5326 94.5241 11.9278C95.1169 12.3033 95.6505 12.8467 96.1247 13.5581C96.599 14.2498 96.9251 15.1687 97.1029 16.3149L96.8954 17.0263ZM90.967 12.2539C90.3346 12.2539 89.7616 12.3626 89.2478 12.5799C88.7537 12.7776 88.3091 13.0542 87.9139 13.4099C87.5384 13.7459 87.2222 14.151 86.9653 14.6253C86.7282 15.0798 86.5602 15.5639 86.4614 16.0777H87.6174C88.6846 16.0777 89.722 16.0678 90.7299 16.0481C91.7377 16.0086 92.7949 15.9592 93.9016 15.8999C94.1585 15.8801 94.3264 15.8109 94.4055 15.6924C94.5043 15.5738 94.5537 15.4355 94.5537 15.2774C94.5537 15.1588 94.5438 15.0501 94.5241 14.9513C94.5043 14.8525 94.4747 14.7537 94.4351 14.6549C94.2178 13.904 93.8127 13.321 93.2198 12.906C92.627 12.4713 91.876 12.2539 90.967 12.2539ZM127.119 25.1779C126.981 25.1779 126.754 25.168 126.438 25.1482C126.121 25.1284 125.795 25.1087 125.459 25.0889C125.123 25.0692 124.797 25.0494 124.481 25.0296C124.165 25.0099 123.938 25 123.799 25H123.236C123.098 25 122.871 25.0099 122.554 25.0296C122.238 25.0494 121.912 25.0692 121.576 25.0889C121.24 25.1087 120.914 25.1284 120.598 25.1482C120.282 25.168 120.055 25.1779 119.916 25.1779L119.827 25.0593L119.916 24.5257L120.035 24.4072C120.351 24.4072 120.647 24.3973 120.924 24.3775C121.221 24.338 121.448 24.2491 121.606 24.1107C121.744 23.9724 121.873 23.7946 121.991 23.5772C122.13 23.3598 122.199 22.9745 122.199 22.4211C122.199 22.2828 122.199 22.1247 122.199 21.9469C122.199 21.7492 122.189 21.5121 122.169 21.2355C122.169 20.9588 122.159 20.6228 122.139 20.2276C122.12 19.8324 122.09 19.3384 122.05 18.7455C121.892 16.6706 121.764 15.0205 121.665 13.7953C121.586 12.5503 121.517 11.582 121.458 10.8903C121.398 10.1987 121.349 9.70466 121.309 9.40824C121.29 9.11182 121.27 8.8648 121.25 8.66719C121.112 9.02289 120.894 9.57621 120.598 10.3271C120.302 11.0583 119.956 11.9081 119.561 12.8764C119.185 13.8249 118.78 14.8426 118.345 15.9295C117.91 17.0164 117.476 18.0934 117.041 19.1605C116.626 20.2276 116.221 21.2355 115.826 22.184C115.45 23.1325 115.124 23.9428 114.847 24.6147H113.454L107.526 8.72647C107.506 8.92409 107.486 9.13158 107.467 9.34896C107.447 9.56633 107.427 9.83311 107.407 10.1493C107.388 10.4457 107.358 10.8014 107.318 11.2164C107.299 11.6116 107.269 12.1057 107.229 12.6985L106.814 18.1527C106.755 18.8246 106.716 19.3779 106.696 19.8126C106.676 20.2474 106.656 20.6228 106.637 20.939C106.617 21.2552 106.607 21.522 106.607 21.7394C106.607 21.9567 106.607 22.184 106.607 22.4211C106.607 22.9745 106.666 23.3598 106.785 23.5772C106.923 23.7946 107.071 23.9724 107.229 24.1107C107.388 24.2491 107.565 24.338 107.763 24.3775C107.98 24.3973 108.247 24.4072 108.563 24.4072L108.682 24.5257L108.771 25.0593L108.712 25.1779C108.573 25.1779 108.366 25.168 108.089 25.1482C107.832 25.1284 107.565 25.1087 107.289 25.0889C107.012 25.0692 106.735 25.0494 106.459 25.0296C106.202 25.0099 106.004 25 105.866 25H105.303C105.164 25 104.937 25.0099 104.621 25.0296C104.324 25.0494 103.998 25.0692 103.643 25.0889C103.307 25.1087 102.981 25.1284 102.665 25.1482C102.368 25.168 102.151 25.1779 102.012 25.1779L101.953 25.0593L102.042 24.5257L102.22 24.4072C102.516 24.4072 102.803 24.3973 103.08 24.3775C103.356 24.338 103.593 24.2491 103.791 24.1107C103.949 23.9724 104.107 23.7946 104.265 23.5772C104.443 23.3598 104.572 22.9745 104.651 22.4211C104.67 22.2828 104.69 22.1247 104.71 21.9469C104.73 21.7492 104.749 21.5121 104.769 21.2355C104.809 20.9588 104.848 20.6228 104.888 20.2276C104.927 19.8324 104.967 19.3384 105.006 18.7455L105.421 12.7282C105.481 12.0365 105.52 11.4535 105.54 10.9793C105.579 10.505 105.599 10.0999 105.599 9.76395C105.619 9.428 105.629 9.14146 105.629 8.90433C105.649 8.66719 105.658 8.43005 105.658 8.19291C105.658 7.6396 105.569 7.25425 105.392 7.03687C105.234 6.79974 105.075 6.62188 104.917 6.50331C104.739 6.36498 104.512 6.28594 104.236 6.26618C103.959 6.22665 103.662 6.20689 103.346 6.20689L103.198 6.08832L103.109 5.55477L103.168 5.4362C103.307 5.4362 103.534 5.44608 103.85 5.46584C104.166 5.4856 104.492 5.50536 104.828 5.52512C105.164 5.54489 105.49 5.56465 105.807 5.58441C106.123 5.60417 106.35 5.61405 106.488 5.61405H107.526C107.684 5.61405 107.901 5.60417 108.178 5.58441C108.474 5.56465 108.712 5.535 108.889 5.49548L109.038 5.58441C109.057 5.84131 109.127 6.18713 109.245 6.62188C109.383 7.03687 109.542 7.51115 109.719 8.0447C109.917 8.57826 110.124 9.15134 110.342 9.76395C110.559 10.3568 110.777 10.9496 110.994 11.5425L113.01 17.0263C113.346 17.9748 113.652 18.785 113.929 19.4569C114.205 20.109 114.452 20.692 114.67 21.2058C114.729 21.107 114.897 20.7315 115.174 20.0794C115.45 19.4075 115.786 18.5874 116.181 17.6191C116.596 16.631 117.031 15.554 117.486 14.3881C117.94 13.2222 118.375 12.0859 118.79 10.9793C119.205 9.85287 119.561 8.8154 119.857 7.86685C120.153 6.9183 120.341 6.16737 120.42 5.61405L120.568 5.49548C120.726 5.535 120.894 5.56465 121.072 5.58441C121.25 5.60417 121.418 5.61405 121.576 5.61405H122.643C122.782 5.61405 123.009 5.60417 123.325 5.58441C123.641 5.56465 123.967 5.54489 124.303 5.52512C124.639 5.50536 124.965 5.4856 125.281 5.46584C125.598 5.44608 125.825 5.4362 125.963 5.4362L126.023 5.55477L125.934 6.08832L125.785 6.20689C125.469 6.20689 125.163 6.22665 124.866 6.26618C124.59 6.28594 124.372 6.36498 124.214 6.50331C124.056 6.62188 123.888 6.79974 123.71 7.03687C123.552 7.27401 123.473 7.65936 123.473 8.19291C123.473 8.46957 123.473 8.72647 123.473 8.96361C123.493 9.20075 123.503 9.47741 123.503 9.79359C123.523 10.1098 123.542 10.4951 123.562 10.9496C123.602 11.4041 123.651 11.9871 123.71 12.6985L124.066 18.1527C124.125 18.8641 124.165 19.447 124.185 19.9016C124.224 20.3363 124.254 20.7019 124.274 20.9983C124.313 21.2947 124.343 21.5516 124.363 21.769C124.402 21.9666 124.442 22.184 124.481 22.4211C124.56 22.9745 124.679 23.3598 124.837 23.5772C124.995 23.7946 125.153 23.9724 125.311 24.1107C125.489 24.2491 125.716 24.338 125.993 24.3775C126.289 24.3973 126.596 24.4072 126.912 24.4072L127.06 24.5257L127.149 25.0593L127.119 25.1779ZM141.638 17.0263L141.163 17.2338C140.096 17.2338 139 17.2436 137.873 17.2634C136.747 17.2832 135.64 17.293 134.553 17.293H131.055C131.036 17.4314 131.026 17.5697 131.026 17.708C131.026 17.8266 131.026 17.9452 131.026 18.0637C131.026 18.8147 131.134 19.536 131.352 20.2276C131.569 20.8995 131.905 21.4923 132.36 22.0061C132.834 22.5199 133.437 22.9349 134.168 23.2511C134.899 23.5475 135.788 23.6957 136.836 23.6957C137.448 23.6957 138.1 23.6365 138.792 23.5179C139.503 23.3796 140.156 23.1424 140.748 22.8065L141.045 22.9843V23.5179L140.748 23.844C140.274 24.2194 139.602 24.5652 138.733 24.8814C137.863 25.1779 136.895 25.3261 135.828 25.3261C134.78 25.3261 133.822 25.1581 132.953 24.8221C132.103 24.4664 131.362 23.9724 130.729 23.34C130.117 22.7077 129.633 21.9567 129.277 21.0872C128.941 20.2177 128.773 19.2494 128.773 18.1823C128.773 17.0954 128.951 16.1074 129.307 15.2181C129.662 14.3288 130.146 13.568 130.759 12.9357C131.391 12.3033 132.123 11.8093 132.953 11.4535C133.802 11.0978 134.711 10.92 135.68 10.92C136.193 10.92 136.766 10.9892 137.399 11.1275C138.051 11.2658 138.673 11.5326 139.266 11.9278C139.859 12.3033 140.393 12.8467 140.867 13.5581C141.341 14.2498 141.667 15.1687 141.845 16.3149L141.638 17.0263ZM135.709 12.2539C135.077 12.2539 134.504 12.3626 133.99 12.5799C133.496 12.7776 133.051 13.0542 132.656 13.4099C132.281 13.7459 131.964 14.151 131.708 14.6253C131.47 15.0798 131.302 15.5639 131.204 16.0777H132.36C133.427 16.0777 134.464 16.0678 135.472 16.0481C136.48 16.0086 137.537 15.9592 138.644 15.8999C138.901 15.8801 139.069 15.8109 139.148 15.6924C139.247 15.5738 139.296 15.4355 139.296 15.2774C139.296 15.1588 139.286 15.0501 139.266 14.9513C139.247 14.8525 139.217 14.7537 139.177 14.6549C138.96 13.904 138.555 13.321 137.962 12.906C137.369 12.4713 136.618 12.2539 135.709 12.2539ZM155.433 24.7925C155.492 24.5751 155.542 24.2491 155.581 23.8143C155.64 23.3796 155.69 22.9942 155.729 22.6583L155.7 22.5397C155.146 23.3697 154.465 24.0416 153.654 24.5554C152.844 25.0692 151.915 25.3261 150.868 25.3261C149.742 25.3261 148.763 25.1284 147.933 24.7332C147.123 24.338 146.451 23.8143 145.918 23.1622C145.404 22.5101 145.019 21.769 144.762 20.939C144.505 20.0893 144.376 19.2099 144.376 18.3009C144.376 16.9571 144.584 15.8208 144.999 14.892C145.414 13.9435 145.937 13.1827 146.57 12.6096C147.202 12.0167 147.894 11.5919 148.645 11.335C149.415 11.0583 150.147 10.92 150.838 10.92C151.787 10.92 152.696 11.1374 153.565 11.5721C154.435 11.9871 155.176 12.6985 155.789 13.7064L155.848 13.5878C155.808 13.1333 155.789 12.6985 155.789 12.2835C155.789 11.8488 155.789 11.4041 155.789 10.9496C155.789 10.1394 155.789 9.45764 155.789 8.90433C155.789 8.33124 155.779 7.83721 155.759 7.42222C155.759 7.00723 155.749 6.64164 155.729 6.32546C155.729 6.00928 155.719 5.6931 155.7 5.37691C155.68 5.15954 155.621 4.9718 155.522 4.81371C155.443 4.65562 155.374 4.53705 155.314 4.45801C155.117 4.24063 154.87 4.1023 154.573 4.04302C154.277 3.98373 153.97 3.95409 153.654 3.95409L153.536 3.83552V3.45017L153.654 3.33161H154.188C154.524 3.33161 154.949 3.33161 155.462 3.33161C155.976 3.31184 156.421 3.27232 156.796 3.21304L157.834 3.06483L158.012 3.33161C157.972 3.41065 157.933 3.55886 157.893 3.77624C157.873 3.97385 157.854 4.19123 157.834 4.42837C157.834 4.6655 157.824 4.89276 157.804 5.11013C157.804 5.32751 157.804 5.49548 157.804 5.61405C157.804 5.93023 157.794 6.22665 157.775 6.50331C157.775 6.77997 157.775 7.10604 157.775 7.4815C157.775 7.85697 157.765 8.31148 157.745 8.84504C157.745 9.3786 157.745 10.0604 157.745 10.8903V17.3523C157.745 18.1823 157.745 18.8641 157.745 19.3976C157.765 19.9312 157.775 20.3857 157.775 20.7612C157.794 21.1366 157.804 21.4627 157.804 21.7394C157.824 22.016 157.844 22.3322 157.863 22.6879C157.903 23.1424 157.952 23.4784 158.012 23.6957C158.071 23.8934 158.16 24.0416 158.278 24.1404C158.456 24.2985 158.693 24.3973 158.99 24.4368C159.286 24.4566 159.593 24.4664 159.909 24.4664L160.027 24.585L160.087 25L160.027 25.1186C159.672 25.079 159.286 25.0494 158.871 25.0296C158.476 25.0099 158.071 25 157.656 25C156.925 25 156.253 25.0296 155.64 25.0889L155.433 24.7925ZM146.629 18.2416C146.629 18.9135 146.718 19.5755 146.896 20.2276C147.074 20.8797 147.341 21.4627 147.696 21.9765C148.052 22.4705 148.506 22.8756 149.06 23.1918C149.613 23.4883 150.275 23.6365 151.046 23.6365C151.777 23.6365 152.429 23.4981 153.002 23.2215C153.595 22.9448 154.089 22.6089 154.484 22.2136C154.88 21.8184 155.186 21.4034 155.403 20.9687C155.64 20.5339 155.769 20.1585 155.789 19.8423V16.552C155.749 16.2358 155.621 15.8505 155.403 15.396C155.206 14.9414 154.909 14.5067 154.514 14.0917C154.138 13.6569 153.664 13.2914 153.091 12.9949C152.538 12.6985 151.876 12.5503 151.105 12.5503C150.315 12.5503 149.633 12.7183 149.06 13.0542C148.506 13.3704 148.042 13.7953 147.667 14.3288C147.311 14.8624 147.044 15.475 146.866 16.1666C146.708 16.8385 146.629 17.5302 146.629 18.2416ZM168.198 25.1186C168.059 25.1186 167.852 25.1087 167.575 25.0889C167.299 25.0692 167.002 25.0494 166.686 25.0296C166.37 25.0296 166.073 25.0198 165.797 25C165.52 25 165.313 25 165.174 25H164.759C164.621 25 164.404 25 164.107 25C163.83 25.0198 163.534 25.0296 163.218 25.0296C162.921 25.0494 162.625 25.0692 162.329 25.0889C162.052 25.1087 161.844 25.1186 161.706 25.1186L161.676 25L161.706 24.585L161.825 24.4664C162.141 24.4664 162.447 24.4566 162.744 24.4368C163.06 24.3973 163.297 24.2985 163.455 24.1404C163.613 24.002 163.712 23.8242 163.751 23.6068C163.811 23.3894 163.86 23.0831 163.9 22.6879C163.919 22.3717 163.939 22.0555 163.959 21.7394C163.979 21.4034 163.989 20.8797 163.989 20.1683V16.5224C163.989 16.1074 163.989 15.7615 163.989 15.4849C163.989 15.1885 163.979 14.9316 163.959 14.7142C163.959 14.4968 163.949 14.2992 163.929 14.1213C163.929 13.9435 163.919 13.7558 163.9 13.5581C163.86 13.3408 163.801 13.153 163.722 12.9949C163.643 12.8171 163.574 12.6985 163.514 12.6392C163.317 12.4021 163.07 12.2638 162.773 12.2242C162.477 12.165 162.17 12.1353 161.854 12.1353L161.736 12.0167V11.6018L161.854 11.5128H162.388C162.724 11.5128 163.149 11.5128 163.662 11.5128C164.176 11.4931 164.621 11.4535 164.996 11.3943L166.034 11.2461L166.212 11.5128C166.172 11.5919 166.133 11.7302 166.093 11.9278C166.073 12.1254 166.054 12.3428 166.034 12.5799C166.034 12.7973 166.024 13.0147 166.004 13.2321C166.004 13.4495 166.004 13.6174 166.004 13.736C166.004 13.8941 165.994 14.0522 165.975 14.2103C165.975 14.3486 165.975 14.5166 165.975 14.7142C165.975 14.9118 165.965 15.1489 165.945 15.4256C165.945 15.7023 165.945 16.058 165.945 16.4927V19.8126C165.945 20.2474 165.945 20.6031 165.945 20.8797C165.965 21.1564 165.975 21.3935 165.975 21.5912C165.994 21.7888 166.004 21.9765 166.004 22.1544C166.024 22.3124 166.044 22.4903 166.063 22.6879C166.103 23.1029 166.143 23.4191 166.182 23.6365C166.241 23.8341 166.35 24.002 166.508 24.1404C166.666 24.2787 166.884 24.3676 167.16 24.4072C167.457 24.4467 167.753 24.4664 168.05 24.4664L168.198 24.6147L168.257 25L168.198 25.1186ZM163.218 6.29582C163.218 5.90059 163.346 5.56465 163.603 5.28799C163.88 4.99157 164.216 4.84336 164.611 4.84336C165.006 4.84336 165.342 4.99157 165.619 5.28799C165.915 5.56465 166.063 5.90059 166.063 6.29582C166.063 6.69105 165.915 7.02699 165.619 7.30365C165.342 7.56055 165.006 7.689 164.611 7.689C164.216 7.689 163.88 7.56055 163.603 7.30365C163.346 7.02699 163.218 6.69105 163.218 6.29582ZM181.577 14.5363L181.459 14.4474C181.459 13.9929 181.32 13.6273 181.044 13.3506C180.787 13.0542 180.471 12.827 180.095 12.6689C179.72 12.5108 179.315 12.4021 178.88 12.3428C178.465 12.2835 178.099 12.2539 177.783 12.2539C176.874 12.2539 176.084 12.4219 175.412 12.7578C174.76 13.074 174.216 13.5087 173.781 14.0621C173.347 14.5956 173.021 15.2181 172.803 15.9295C172.606 16.6212 172.507 17.3326 172.507 18.0637C172.507 18.8147 172.615 19.536 172.833 20.2276C173.07 20.9193 173.426 21.5319 173.9 22.0654C174.374 22.599 174.967 23.0239 175.678 23.34C176.39 23.6562 177.24 23.8143 178.228 23.8143C178.9 23.8143 179.641 23.7155 180.451 23.5179C181.281 23.3005 181.992 23.0337 182.585 22.7176L182.881 23.014L182.437 23.844C182.219 24.002 181.933 24.17 181.577 24.3479C181.241 24.506 180.856 24.6641 180.421 24.8221C179.986 24.9605 179.512 25.079 178.998 25.1779C178.504 25.2767 178.01 25.3261 177.516 25.3261C176.548 25.3261 175.619 25.1581 174.73 24.8221C173.86 24.4664 173.09 23.9823 172.418 23.3697C171.766 22.7373 171.242 21.9864 170.847 21.1169C170.452 20.2276 170.254 19.2494 170.254 18.1823C170.254 17.0954 170.452 16.1074 170.847 15.2181C171.242 14.3288 171.785 13.568 172.477 12.9357C173.169 12.3033 173.969 11.8093 174.878 11.4535C175.807 11.0978 176.795 10.92 177.842 10.92C178.791 10.92 179.68 11.0386 180.51 11.2757C181.36 11.5128 182.002 11.75 182.437 11.9871L182.526 12.2539L182.2 14.5363H181.577ZM193.606 24.7925C193.665 24.5751 193.704 24.2491 193.724 23.8143C193.764 23.3796 193.813 22.9745 193.872 22.599L193.843 22.5101C193.586 22.8658 193.28 23.2116 192.924 23.5475C192.568 23.8835 192.173 24.1898 191.738 24.4664C191.323 24.7233 190.869 24.9308 190.375 25.0889C189.9 25.247 189.396 25.3261 188.863 25.3261C188.25 25.3261 187.707 25.2174 187.233 25C186.758 24.7826 186.363 24.4961 186.047 24.1404C185.731 23.7847 185.494 23.3697 185.335 22.8954C185.177 22.4211 185.098 21.9271 185.098 21.4133C185.098 20.6821 185.266 20.0498 185.602 19.5162C185.938 18.9629 186.383 18.5084 186.936 18.1527C187.45 17.8365 188.053 17.5796 188.744 17.382C189.456 17.1844 190.138 17.046 190.79 16.967C191.462 16.8682 192.064 16.8089 192.598 16.7891C193.131 16.7496 193.487 16.7298 193.665 16.7298H194.08C194.06 15.9987 194.021 15.4256 193.961 15.0106C193.902 14.5759 193.823 14.2201 193.724 13.9435C193.507 13.3506 193.131 12.9258 192.598 12.6689C192.064 12.3922 191.422 12.2539 190.671 12.2539C190.355 12.2539 190.009 12.2835 189.634 12.3428C189.278 12.4021 188.932 12.5108 188.596 12.6689C188.28 12.827 188.003 13.0542 187.766 13.3506C187.529 13.6273 187.391 13.9929 187.351 14.4474L187.233 14.5363H186.58L186.314 12.3428L186.403 12.165C186.501 12.0464 186.709 11.9179 187.025 11.7796C187.341 11.6413 187.707 11.5128 188.122 11.3943C188.557 11.2559 189.031 11.1472 189.545 11.0682C190.078 10.9694 190.602 10.92 191.116 10.92C191.827 10.92 192.489 11.0188 193.102 11.2164C193.714 11.3943 194.238 11.6709 194.673 12.0464C195.127 12.4219 195.483 12.8961 195.74 13.4692C195.997 14.0225 196.125 14.6747 196.125 15.4256C196.125 16.2556 196.115 16.9966 196.096 17.6488C196.096 18.2811 196.086 18.874 196.066 19.4273C196.046 19.9608 196.026 20.4944 196.007 21.028C196.007 21.5418 196.007 22.0951 196.007 22.6879C196.046 23.1424 196.096 23.4784 196.155 23.6957C196.214 23.8934 196.313 24.0416 196.451 24.1404C196.609 24.2985 196.837 24.3973 197.133 24.4368C197.449 24.4566 197.765 24.4664 198.082 24.4664L198.2 24.585L198.23 25L198.2 25.1186C197.844 25.079 197.459 25.0494 197.044 25.0296C196.629 25.0099 196.224 25 195.829 25C195.078 25 194.396 25.0296 193.784 25.0889L193.606 24.7925ZM193.606 21.5912C193.665 21.4923 193.724 21.3738 193.784 21.2355C193.863 21.0971 193.912 20.9291 193.932 20.7315L194.08 17.7673H193.813C193.023 17.7673 192.232 17.8167 191.442 17.9155C190.651 17.9946 189.94 18.1625 189.308 18.4194C188.695 18.6763 188.191 19.0321 187.796 19.4866C187.401 19.9411 187.203 20.524 187.203 21.2355C187.203 21.9864 187.42 22.5891 187.855 23.0436C188.29 23.4784 188.853 23.6957 189.545 23.6957C189.96 23.6957 190.375 23.6266 190.79 23.4883C191.205 23.3499 191.59 23.1721 191.946 22.9547C192.321 22.7373 192.647 22.5101 192.924 22.2729C193.22 22.0358 193.448 21.8085 193.606 21.5912ZM199.478 3.45017L199.596 3.33161H200.13C200.466 3.33161 200.891 3.33161 201.404 3.33161C201.918 3.31184 202.363 3.27232 202.738 3.21304L203.805 3.06483L203.983 3.33161C203.944 3.41065 203.914 3.55886 203.894 3.77624C203.874 3.97385 203.855 4.19123 203.835 4.42837C203.815 4.6655 203.795 4.89276 203.776 5.11013C203.776 5.32751 203.776 5.49548 203.776 5.61405C203.756 5.93023 203.736 6.22665 203.716 6.50331C203.716 6.77997 203.707 7.10604 203.687 7.4815C203.687 7.85697 203.687 8.31148 203.687 8.84504C203.687 9.3786 203.687 10.0604 203.687 10.8903V17.3523C203.687 18.1823 203.687 18.8641 203.687 19.3976C203.707 19.9312 203.716 20.3857 203.716 20.7612C203.736 21.1366 203.746 21.4627 203.746 21.7394C203.766 22.016 203.786 22.3322 203.805 22.6879C203.845 23.1029 203.884 23.4191 203.924 23.6365C203.983 23.8341 204.092 24.002 204.25 24.1404C204.408 24.2787 204.625 24.3676 204.902 24.4072C205.198 24.4467 205.495 24.4664 205.791 24.4664L205.94 24.6147L205.999 25L205.94 25.1186C205.801 25.1186 205.594 25.1087 205.317 25.0889C205.04 25.0692 204.744 25.0494 204.428 25.0296C204.112 25.0296 203.815 25.0198 203.539 25C203.262 25 203.054 25 202.916 25H202.501C202.363 25 202.145 25 201.849 25C201.572 25.0198 201.276 25.0296 200.96 25.0296C200.663 25.0494 200.367 25.0692 200.07 25.0889C199.794 25.1087 199.586 25.1186 199.448 25.1186L199.418 25L199.448 24.585L199.566 24.4664C199.883 24.4664 200.189 24.4566 200.485 24.4368C200.802 24.3973 201.039 24.2985 201.197 24.1404C201.355 24.002 201.454 23.8242 201.493 23.6068C201.553 23.3894 201.602 23.0831 201.641 22.6879C201.661 22.431 201.671 22.1741 201.671 21.9172C201.691 21.6603 201.701 21.3639 201.701 21.028C201.72 20.6722 201.73 20.2671 201.73 19.8126C201.73 19.3384 201.73 18.7554 201.73 18.0637V10.9496C201.73 10.1394 201.73 9.45764 201.73 8.90433C201.73 8.33124 201.72 7.83721 201.701 7.42222C201.701 7.00723 201.691 6.64164 201.671 6.32546C201.671 6.00928 201.661 5.6931 201.641 5.37691C201.622 5.15954 201.562 4.9718 201.464 4.81371C201.385 4.65562 201.315 4.53705 201.256 4.45801C201.058 4.24063 200.811 4.1023 200.515 4.04302C200.219 3.98373 199.912 3.95409 199.596 3.95409L199.478 3.83552V3.45017Z" fill="white"/>
</svg>
