<svg width="479" height="120" viewBox="0 0 479 120" fill="none" xmlns="http://www.w3.org/2000/svg">
<path d="M78.3203 90.2231C78.3203 86.562 77.6836 83.2988 76.4102 80.4336C75.1367 77.5684 73.0939 74.995 70.2817 72.7134C67.4696 70.4318 63.7819 68.3359 59.2188 66.4258C54.7087 64.5156 49.1639 62.6585 42.5845 60.8545C36.6948 59.2627 31.3888 57.5648 26.6665 55.7607C21.9442 53.9036 17.9116 51.7812 14.5688 49.3936C11.2791 47.0059 8.75879 44.1672 7.00781 40.8774C5.25684 37.5347 4.38135 33.5286 4.38135 28.8594C4.38135 24.4554 5.33643 20.5024 7.24658 17.0005C9.2098 13.4985 11.9159 10.5272 15.3647 8.08643C18.8667 5.64567 22.9523 3.78857 27.6216 2.51514C32.2909 1.18864 37.3581 0.525391 42.8232 0.525391C50.3577 0.525391 57.0168 1.95801 62.8003 4.82324C68.5838 7.68848 73.1204 11.6945 76.4102 16.8413C79.7529 21.9351 81.4243 27.9043 81.4243 34.749H77.1265C77.1265 29.0186 75.6938 23.8983 72.8286 19.3882C69.9634 14.8781 65.9574 11.3231 60.8105 8.72314C55.7168 6.12321 49.721 4.82324 42.8232 4.82324C35.554 4.82324 29.3726 5.9375 24.2788 8.16602C19.1851 10.3945 15.3117 13.3394 12.6587 17.0005C10.0057 20.6086 8.6792 24.5085 8.6792 28.7002C8.6792 31.7777 9.2098 34.6429 10.271 37.2959C11.3853 39.9489 13.2424 42.4162 15.8423 44.6978C18.4422 46.9263 22.0238 49.0487 26.5869 51.0649C31.1501 53.0282 36.8805 54.9118 43.7783 56.7158C49.5088 58.2015 54.7352 59.8729 59.4575 61.73C64.2329 63.5871 68.3451 65.7891 71.7939 68.3359C75.2959 70.8828 77.9754 73.9338 79.8325 77.4888C81.7427 80.9907 82.6978 85.1825 82.6978 90.064C82.6978 94.7863 81.6631 98.978 79.5938 102.639C77.5775 106.3 74.7653 109.404 71.1572 111.951C67.5492 114.445 63.3574 116.355 58.582 117.682C53.8597 118.955 48.7925 119.592 43.3804 119.592C38.4458 119.592 33.4582 119.008 28.4175 117.841C23.3768 116.674 18.7606 114.79 14.5688 112.19C10.3771 109.537 7.00781 106.008 4.46094 101.604C1.91406 97.2005 0.640625 91.7619 0.640625 85.2886H4.93848C4.93848 91.0721 6.13232 95.9006 8.52002 99.7739C10.9077 103.647 14.0117 106.725 17.832 109.006C21.7054 111.235 25.8706 112.853 30.3276 113.861C34.8377 114.816 39.1886 115.294 43.3804 115.294C50.172 115.294 56.1943 114.233 61.4473 112.11C66.7002 109.988 70.8123 107.043 73.7837 103.276C76.8081 99.5086 78.3203 95.1577 78.3203 90.2231ZM141.594 69.0522H106.416V64.7544H141.594C149.394 64.7544 155.735 63.481 160.616 60.9341C165.498 58.3341 169.053 54.8587 171.281 50.5078C173.563 46.1569 174.704 41.355 174.704 36.1021C174.704 30.6369 173.563 25.6758 171.281 21.2188C169.053 16.7087 165.498 13.1271 160.616 10.4741C155.735 7.76807 149.394 6.41504 141.594 6.41504H109.679V118H105.381V2.11719H141.594C149.819 2.11719 156.69 3.52327 162.208 6.33545C167.779 9.14762 171.971 13.1006 174.783 18.1943C177.595 23.235 179.001 29.1512 179.001 35.9429C179.001 42.7345 177.595 48.6242 174.783 53.6118C172.024 58.5464 167.859 62.3667 162.288 65.0728C156.769 67.7257 149.872 69.0522 141.594 69.0522ZM225.562 5.77832L183.697 118H179.001L222.378 2.11719H226.517L225.562 5.77832ZM266.312 118L224.447 5.77832L223.572 2.11719H227.631L271.007 118H266.312ZM254.055 79.0806V83.3784H196.034V79.0806H254.055ZM289.313 2.11719H326.243C333.618 2.11719 340.171 3.41715 345.901 6.01709C351.632 8.56396 356.115 12.3312 359.352 17.3188C362.642 22.2534 364.287 28.3288 364.287 35.5449C364.287 41.1693 363.066 46.263 360.625 50.8262C358.185 55.3363 354.922 59.0505 350.836 61.9688C346.75 64.887 342.187 66.7176 337.146 67.4604L334.679 68.4155H290.348L290.188 64.1177H330.143C336.775 64.1177 342.293 62.7381 346.697 59.979C351.101 57.2199 354.417 53.6649 356.646 49.314C358.875 44.91 359.989 40.3203 359.989 35.5449C359.989 29.443 358.609 24.2432 355.85 19.9453C353.091 15.5944 349.165 12.2516 344.071 9.91699C339.03 7.58236 333.087 6.41504 326.243 6.41504H293.611V118H289.313V2.11719ZM364.605 118L332.849 66.9033L337.863 66.7441L369.142 116.886V118H364.605ZM400.659 2.11719V118H396.361V2.11719H400.659ZM474.041 2.11719L422.228 54.2485L398.908 75.7378L399.545 70.1665L419.602 50.5874L467.833 2.11719H474.041ZM472.449 118L417.851 55.522L420.477 51.7812L478.021 118H472.449Z" fill="#025954"/>
</svg>
