<svg width="607" height="156" viewBox="0 0 607 156" fill="none" xmlns="http://www.w3.org/2000/svg">
<path d="M3.432 50.258V34.61H71.24V51.073L22.503 105.189H73.848V121H0.172001V103.233L47.605 50.258H3.432ZM183.224 85.629H115.253C115.687 91.9317 118.567 97.039 123.892 100.951C129.216 104.754 135.302 106.656 142.148 106.656C153.014 106.656 161.273 103.233 166.924 96.387L177.356 107.797C168.01 117.468 155.84 122.304 140.844 122.304C128.673 122.304 118.295 118.283 109.711 110.242C101.235 102.092 96.9965 91.2253 96.9965 77.642C96.9965 63.95 101.343 53.0833 110.037 45.042C118.73 37.0007 128.945 32.98 140.681 32.98C152.525 32.98 162.577 36.566 170.836 43.738C179.094 50.8013 183.224 60.5813 183.224 73.078V85.629ZM115.253 71.285H164.968C164.968 64.0043 162.686 58.408 158.122 54.496C153.558 50.584 147.907 48.628 141.17 48.628C134.541 48.628 128.564 50.6927 123.24 54.822C117.915 58.8427 115.253 64.3303 115.253 71.285ZM255.459 32.98C267.087 32.98 277.03 37.0007 285.288 45.042C293.547 53.0833 297.676 63.787 297.676 77.153C297.676 90.519 293.547 101.386 285.288 109.753C277.138 118.12 267.576 122.304 256.6 122.304C245.734 122.304 235.954 117.523 227.26 107.96V152.622H209.004V34.284H227.26V49.443C234.432 38.4677 243.832 32.98 255.459 32.98ZM226.934 77.805C226.934 86.0637 229.434 92.8553 234.432 98.18C239.431 103.396 245.516 106.004 252.688 106.004C259.86 106.004 266.109 103.396 271.433 98.18C276.758 92.964 279.42 86.2267 279.42 77.968C279.42 69.6007 276.812 62.7003 271.596 57.267C266.38 51.725 260.132 48.954 252.851 48.954C245.571 48.954 239.431 51.725 234.432 57.267C229.434 62.7003 226.934 69.5463 226.934 77.805ZM341.666 74.056V121H323.41V0.216991H341.666V50.095C344.274 44.7703 348.186 40.5867 353.402 37.544C358.727 34.5013 364.432 32.98 370.517 32.98C380.297 32.98 388.175 35.9683 394.152 41.945C400.237 47.9217 403.28 56.5607 403.28 67.862V121H385.024V73.404C385.024 57.43 378.395 49.443 365.138 49.443C358.835 49.443 353.348 51.562 348.675 55.8C344.002 59.9293 341.666 66.0147 341.666 74.056ZM456.008 155.556C448.075 155.556 440.903 152.676 434.492 146.917L442.805 132.084C446.608 135.67 450.52 137.463 454.541 137.463C458.67 137.463 461.985 135.996 464.484 133.062C467.092 130.128 468.396 126.922 468.396 123.445C468.396 121.924 456.714 92.2033 433.351 34.284H452.911L478.828 98.18L504.745 34.284H524.305L482.251 137.3C479.752 142.951 476.166 147.406 471.493 150.666C466.82 153.926 461.659 155.556 456.008 155.556ZM605.352 51.399C596.332 51.399 589.541 54.333 584.977 60.201C580.413 66.069 578.131 73.9473 578.131 83.836V121H559.875V34.284H578.131V51.725C581.065 46.2917 585.031 41.8363 590.03 38.359C595.137 34.8817 600.516 33.0887 606.167 32.98L606.33 51.399C606.004 51.399 605.678 51.399 605.352 51.399Z" fill="#025954"/>
</svg>
